HIERARCHY
ROOT mixamorig:Hips
{
	OFFSET -0.000008 104.274872 1.554316
	CHANNELS 6 Xposition Yposition Zposition Xrotation Yrotation Zrotation
	JOINT mixamorig:Spine
	{
		OFFSET -0.000005 10.181595 0.131519
		CHANNELS 6 Xposition Yposition Zposition Xrotation Yrotation Zrotation
		JOINT mixamorig:Spine1
		{
			OFFSET -0.000000 9.893959 -1.470707
			CHANNELS 6 Xposition Yposition Zposition Xrotation Yrotation Zrotation
			JOINT mixamorig:Spine2
			{
				OFFSET -0.000000 9.220757 -1.370641
				CHANNELS 6 Xposition Yposition Zposition Xrotation Yrotation Zrotation
				JOINT mixamorig:Neck
				{
					OFFSET 0.000001 16.740417 -2.049036
					CHANNELS 6 Xposition Yposition Zposition Xrotation Yrotation Zrotation
					JOINT mixamorig:Head
					{
						OFFSET 0.000000 9.617874 1.685006
						CHANNELS 6 Xposition Yposition Zposition Xrotation Yrotation Zrotation
						JOINT mixamorig:HeadTop_End
						{
							OFFSET 0.000002 22.037354 7.501101
							CHANNELS 6 Xposition Yposition Zposition Xrotation Yrotation Zrotation
							End Site
							{
								OFFSET 0.000168 2310.654297 -282.823242
							}
						}
					}
				}
				JOINT mixamorig:RightShoulder
				{
					OFFSET -4.569970 11.014908 -2.160885
					CHANNELS 6 Xposition Yposition Zposition Xrotation Yrotation Zrotation
					JOINT mixamorig:RightArm
					{
						OFFSET -10.592851 -0.524811 -2.232101
						CHANNELS 6 Xposition Yposition Zposition Xrotation Yrotation Zrotation
						JOINT mixamorig:RightForeArm
						{
							OFFSET -27.841511 0.000031 -0.000004
							CHANNELS 6 Xposition Yposition Zposition Xrotation Yrotation Zrotation
							JOINT mixamorig:RightHand
							{
								OFFSET -28.328831 -0.000015 0.000015
								CHANNELS 6 Xposition Yposition Zposition Xrotation Yrotation Zrotation
								JOINT mixamorig:RightHandThumb1
								{
									OFFSET -2.464806 -1.573990 2.681852
									CHANNELS 6 Xposition Yposition Zposition Xrotation Yrotation Zrotation
									JOINT mixamorig:RightHandThumb2
									{
										OFFSET -3.215179 -1.872803 1.924282
										CHANNELS 6 Xposition Yposition Zposition Xrotation Yrotation Zrotation
										JOINT mixamorig:RightHandThumb3
										{
											OFFSET -2.654831 -1.527969 1.512609
											CHANNELS 6 Xposition Yposition Zposition Xrotation Yrotation Zrotation
											JOINT mixamorig:RightHandThumb4
											{
												OFFSET -2.018814 -1.152008 1.108052
												CHANNELS 6 Xposition Yposition Zposition Xrotation Yrotation Zrotation
												End Site
												{
													OFFSET -188.809540 -114.533607 132.431396
												}
											}
										}
									}
								}
								JOINT mixamorig:RightHandIndex1
								{
									OFFSET -9.108284 -0.517868 2.259835
									CHANNELS 6 Xposition Yposition Zposition Xrotation Yrotation Zrotation
									JOINT mixamorig:RightHandIndex2
									{
										OFFSET -3.699989 0.000000 0.001215
										CHANNELS 6 Xposition Yposition Zposition Xrotation Yrotation Zrotation
										JOINT mixamorig:RightHandIndex3
										{
											OFFSET -2.850006 0.000031 -0.000522
											CHANNELS 6 Xposition Yposition Zposition Xrotation Yrotation Zrotation
											JOINT mixamorig:RightHandIndex4
											{
												OFFSET -2.772186 -0.000015 -0.000020
												CHANNELS 6 Xposition Yposition Zposition Xrotation Yrotation Zrotation
												End Site
												{
													OFFSET -277.218445 0.000000 -0.050231
												}
											}
										}
									}
								}
								JOINT mixamorig:RightHandMiddle1
								{
									OFFSET -9.532516 -0.000031 -0.000023
									CHANNELS 6 Xposition Yposition Zposition Xrotation Yrotation Zrotation
									JOINT mixamorig:RightHandMiddle2
									{
										OFFSET -3.700005 -0.000015 0.003713
										CHANNELS 6 Xposition Yposition Zposition Xrotation Yrotation Zrotation
										JOINT mixamorig:RightHandMiddle3
										{
											OFFSET -2.949974 0.000015 -0.002054
											CHANNELS 6 Xposition Yposition Zposition Xrotation Yrotation Zrotation
											JOINT mixamorig:RightHandMiddle4
											{
												OFFSET -2.946640 0.000000 -0.000156
												CHANNELS 6 Xposition Yposition Zposition Xrotation Yrotation Zrotation
												End Site
												{
													OFFSET -294.664337 0.000000 -0.113670
												}
											}
										}
									}
								}
								JOINT mixamorig:RightHandRing1
								{
									OFFSET -9.103600 -0.043076 -1.865134
									CHANNELS 6 Xposition Yposition Zposition Xrotation Yrotation Zrotation
									JOINT mixamorig:RightHandRing2
									{
										OFFSET -3.379288 0.000000 -0.001055
										CHANNELS 6 Xposition Yposition Zposition Xrotation Yrotation Zrotation
										JOINT mixamorig:RightHandRing3
										{
											OFFSET -2.889687 -0.000015 0.000379
											CHANNELS 6 Xposition Yposition Zposition Xrotation Yrotation Zrotation
											JOINT mixamorig:RightHandRing4
											{
												OFFSET -2.638809 -0.000015 0.000941
												CHANNELS 6 Xposition Yposition Zposition Xrotation Yrotation Zrotation
												End Site
												{
													OFFSET -263.880371 0.000000 0.516020
												}
											}
										}
									}
								}
								JOINT mixamorig:RightHandPinky1
								{
									OFFSET -8.076683 -0.486710 -3.806280
									CHANNELS 6 Xposition Yposition Zposition Xrotation Yrotation Zrotation
									JOINT mixamorig:RightHandPinky2
									{
										OFFSET -3.600014 -0.000015 -0.003747
										CHANNELS 6 Xposition Yposition Zposition Xrotation Yrotation Zrotation
										JOINT mixamorig:RightHandPinky3
										{
											OFFSET -2.099983 0.000000 -0.005739
											CHANNELS 6 Xposition Yposition Zposition Xrotation Yrotation Zrotation
											JOINT mixamorig:RightHandPinky4
											{
												OFFSET -2.115768 -0.000031 -0.003680
												CHANNELS 6 Xposition Yposition Zposition Xrotation Yrotation Zrotation
												End Site
												{
													OFFSET -211.577087 0.000000 -0.350686
												}
											}
										}
									}
								}
							}
						}
					}
				}
				JOINT mixamorig:LeftShoulder
				{
					OFFSET 4.570447 11.014725 -2.160855
					CHANNELS 6 Xposition Yposition Zposition Xrotation Yrotation Zrotation
					JOINT mixamorig:LeftArm
					{
						OFFSET 10.592371 -0.524597 -2.232119
						CHANNELS 6 Xposition Yposition Zposition Xrotation Yrotation Zrotation
						JOINT mixamorig:LeftForeArm
						{
							OFFSET 27.841532 -0.000031 0.000026
							CHANNELS 6 Xposition Yposition Zposition Xrotation Yrotation Zrotation
							JOINT mixamorig:LeftHand
							{
								OFFSET 28.328846 -0.000061 0.000022
								CHANNELS 6 Xposition Yposition Zposition Xrotation Yrotation Zrotation
								JOINT mixamorig:LeftHandThumb1
								{
									OFFSET 2.466141 -1.576172 2.681732
									CHANNELS 6 Xposition Yposition Zposition Xrotation Yrotation Zrotation
									JOINT mixamorig:LeftHandThumb2
									{
										OFFSET 3.217812 -1.872070 1.916482
										CHANNELS 6 Xposition Yposition Zposition Xrotation Yrotation Zrotation
										JOINT mixamorig:LeftHandThumb3
										{
											OFFSET 2.656029 -1.528778 1.514513
											CHANNELS 6 Xposition Yposition Zposition Xrotation Yrotation Zrotation
											JOINT mixamorig:LeftHandThumb4
											{
												OFFSET 2.020889 -1.154053 1.115139
												CHANNELS 6 Xposition Yposition Zposition Xrotation Yrotation Zrotation
												End Site
												{
													OFFSET 190.885437 -115.081749 130.048782
												}
											}
										}
									}
								}
								JOINT mixamorig:LeftHandIndex1
								{
									OFFSET 9.109314 -0.518021 2.259871
									CHANNELS 6 Xposition Yposition Zposition Xrotation Yrotation Zrotation
									JOINT mixamorig:LeftHandIndex2
									{
										OFFSET 3.699989 0.000000 -0.000322
										CHANNELS 6 Xposition Yposition Zposition Xrotation Yrotation Zrotation
										JOINT mixamorig:LeftHandIndex3
										{
											OFFSET 2.850006 0.000000 0.000352
											CHANNELS 6 Xposition Yposition Zposition Xrotation Yrotation Zrotation
											JOINT mixamorig:LeftHandIndex4
											{
												OFFSET 2.774864 -0.000031 -0.000027
												CHANNELS 6 Xposition Yposition Zposition Xrotation Yrotation Zrotation
												End Site
												{
													OFFSET 277.486267 0.000000 -0.009857
												}
											}
										}
									}
								}
								JOINT mixamorig:LeftHandMiddle1
								{
									OFFSET 9.533394 0.000061 0.000044
									CHANNELS 6 Xposition Yposition Zposition Xrotation Yrotation Zrotation
									JOINT mixamorig:LeftHandMiddle2
									{
										OFFSET 3.699989 -0.000015 -0.000231
										CHANNELS 6 Xposition Yposition Zposition Xrotation Yrotation Zrotation
										JOINT mixamorig:LeftHandMiddle3
										{
											OFFSET 2.949997 -0.000015 -0.000059
											CHANNELS 6 Xposition Yposition Zposition Xrotation Yrotation Zrotation
											JOINT mixamorig:LeftHandMiddle4
											{
												OFFSET 2.952896 0.000031 0.000063
												CHANNELS 6 Xposition Yposition Zposition Xrotation Yrotation Zrotation
												End Site
												{
													OFFSET 295.289337 0.000000 0.022810
												}
											}
										}
									}
								}
								JOINT mixamorig:LeftHandRing1
								{
									OFFSET 9.104523 -0.042999 -1.865074
									CHANNELS 6 Xposition Yposition Zposition Xrotation Yrotation Zrotation
									JOINT mixamorig:LeftHandRing2
									{
										OFFSET 3.150009 -0.000031 0.000043
										CHANNELS 6 Xposition Yposition Zposition Xrotation Yrotation Zrotation
										JOINT mixamorig:LeftHandRing3
										{
											OFFSET 2.949982 -0.000015 0.000040
											CHANNELS 6 Xposition Yposition Zposition Xrotation Yrotation Zrotation
											JOINT mixamorig:LeftHandRing4
											{
												OFFSET 2.644348 0.000000 0.000057
												CHANNELS 6 Xposition Yposition Zposition Xrotation Yrotation Zrotation
												End Site
												{
													OFFSET 264.434631 0.000000 0.012105
												}
											}
										}
									}
								}
								JOINT mixamorig:LeftHandPinky1
								{
									OFFSET 8.077789 -0.486847 -3.806259
									CHANNELS 6 Xposition Yposition Zposition Xrotation Yrotation Zrotation
									JOINT mixamorig:LeftHandPinky2
									{
										OFFSET 3.599953 0.000031 0.014727
										CHANNELS 6 Xposition Yposition Zposition Xrotation Yrotation Zrotation
										JOINT mixamorig:LeftHandPinky3
										{
											OFFSET 2.100021 0.000015 0.007705
											CHANNELS 6 Xposition Yposition Zposition Xrotation Yrotation Zrotation
											JOINT mixamorig:LeftHandPinky4
											{
												OFFSET 2.125504 0.000031 0.007517
												CHANNELS 6 Xposition Yposition Zposition Xrotation Yrotation Zrotation
												End Site
												{
													OFFSET 212.550781 0.000000 0.625752
												}
											}
										}
									}
								}
							}
						}
					}
				}
			}
		}
	}
	JOINT mixamorig:RightUpLeg
	{
		OFFSET -8.207787 -6.751648 -1.599560
		CHANNELS 6 Xposition Yposition Zposition Xrotation Yrotation Zrotation
		JOINT mixamorig:RightLeg
		{
			OFFSET -0.000002 -44.370117 0.345942
			CHANNELS 6 Xposition Yposition Zposition Xrotation Yrotation Zrotation
			JOINT mixamorig:RightFoot
			{
				OFFSET 0.000003 -44.423679 -3.043532
				CHANNELS 6 Xposition Yposition Zposition Xrotation Yrotation Zrotation
				JOINT mixamorig:RightToeBase
				{
					OFFSET -0.000002 -8.728671 10.710558
					CHANNELS 6 Xposition Yposition Zposition Xrotation Yrotation Zrotation
					JOINT mixamorig:RightToe_End
					{
						OFFSET -0.000001 -0.000679 9.278119
						CHANNELS 6 Xposition Yposition Zposition Xrotation Yrotation Zrotation
						End Site
						{
							OFFSET 0.000000 -0.067690 927.812134
						}
					}
				}
			}
		}
	}
	JOINT mixamorig:LeftUpLeg
	{
		OFFSET 8.207793 -6.751686 -1.599556
		CHANNELS 6 Xposition Yposition Zposition Xrotation Yrotation Zrotation
		JOINT mixamorig:LeftLeg
		{
			OFFSET -0.000004 -44.370014 0.346954
			CHANNELS 6 Xposition Yposition Zposition Xrotation Yrotation Zrotation
			JOINT mixamorig:LeftFoot
			{
				OFFSET -0.000001 -44.423672 -3.044401
				CHANNELS 6 Xposition Yposition Zposition Xrotation Yrotation Zrotation
				JOINT mixamorig:LeftToeBase
				{
					OFFSET -0.000002 -8.728669 10.710558
					CHANNELS 6 Xposition Yposition Zposition Xrotation Yrotation Zrotation
					JOINT mixamorig:LeftToe_End
					{
						OFFSET -0.000003 -0.000679 9.278133
						CHANNELS 6 Xposition Yposition Zposition Xrotation Yrotation Zrotation
						End Site
						{
							OFFSET 0.000000 -0.068021 927.813477
						}
					}
				}
			}
		}
	}
}
MOTION
Frames: 3
Frame Time: 0.033333
0.000006 104.270477 1.554256 0.000010 0.000003 -0.000113 -0.000005 10.181587 0.131522 0.000001 -0.000003 0.000084 -0.000000 9.893967 -1.470711 0.000001 0.000000 -0.000000 -0.000000 9.220802 -1.370642 0.000000 -0.000000 -0.000000 0.000001 16.740433 -2.049030 0.000000 -0.000000 -0.000000 0.000000 9.617859 1.685014 0.000000 0.000000 0.000000 0.000002 22.037384 7.501101 0.000000 -0.000000 0.000000 -4.569968 11.014880 -2.160881 0.000008 0.000001 -0.000038 -10.592800 -0.524849 -2.231755 77.497150 60.597998 -50.248479 -27.841469 0.000022 0.000590 36.123050 105.354425 -46.315110 -28.328838 0.000006 0.000018 -0.000319 -0.000046 0.000008 -2.464687 -1.574196 2.682011 119.197074 -156.568372 161.583684 -3.214915 -1.873035 1.924504 85.965314 224.103670 137.777442 -2.654430 -1.528103 1.513048 181.064162 308.676958 233.047694 -2.018841 -1.152014 1.108063 -0.000004 -0.000002 -0.000001 -9.108310 -0.517921 2.260357 -121.677771 7.300290 13.100554 -3.700007 -0.000101 0.001687 239.754994 4.250749 7.361958 -2.850032 -0.000052 -0.000030 237.255090 3.437039 6.291002 -2.772163 -0.000001 -0.000033 -0.000003 -0.000001 -0.000000 -9.532523 -0.000101 0.000501 237.178729 10.107614 18.594784 -3.699961 0.000033 0.003681 3.687042 -7.904559 0.251862 -2.949912 0.000209 -0.002074 39.754119 -15.137777 5.501988 -2.946635 -0.000001 -0.000158 -0.000000 -0.000001 0.000001 -9.103628 -0.043163 -1.864650 -112.725777 10.242040 15.300561 -3.379170 -0.000035 -0.001086 -0.292642 -20.041515 -0.049017 -2.889569 0.000253 0.000350 46.194854 -22.598898 9.734404 -2.638813 -0.000000 0.000946 -0.000002 -0.000003 0.000002 -8.076661 -0.486837 -3.805823 -112.616678 1.759581 2.463314 -3.599820 -0.000105 -0.003764 -11.594288 -32.542955 -3.516021 -2.099838 0.000241 -0.005763 45.063543 -26.136899 11.025781 -2.115773 -0.000037 -0.003671 0.000003 -0.000001 -0.000007 4.570446 11.014691 -2.160851 -0.000018 0.000010 -0.000021 10.592483 -0.524571 -2.232363 41.156206 -62.136376 25.491186 27.841778 -0.000049 -0.000115 214.683214 -75.593576 223.860748 28.328840 -0.000028 0.000019 0.000020 -0.000089 -0.000000 2.465872 -1.576078 2.681890 -53.720107 167.065498 26.584507 3.217685 -1.872066 1.916574 343.364128 147.684659 317.188494 2.656062 -1.528764 1.514583 -170.344740 13.953760 83.605170 2.020887 -1.154079 1.115147 -0.000002 0.000006 0.000004 9.109243 -0.518052 2.259949 -2.480809 -158.937136 -13.345744 3.699817 -0.000011 -0.000232 1.254087 -159.158243 6.882991 2.849753 0.000082 0.000456 -172.828566 -17.558827 -135.833857 2.774898 -0.000029 -0.000032 -0.000000 -0.000002 -0.000001 9.533545 0.000211 0.000014 142.766130 -22.959874 62.143882 3.700023 0.000113 -0.000385 65.470314 -6.448835 4.146624 2.949986 -0.000005 -0.000169 28.870236 4.978926 -1.281856 2.952871 -0.000032 0.000061 0.000000 -0.000004 0.000004 9.104671 -0.042797 -1.865134 132.913856 -20.651374 45.389677 3.149947 0.000161 -0.000164 60.009059 16.268317 -9.435900 2.949935 0.000023 -0.000078 16.148572 29.984264 -4.351607 2.644325 0.000030 0.000059 0.000002 0.000000 0.000000 8.077911 -0.486593 -3.806304 139.406306 -14.924949 40.577502 3.599876 0.000236 0.014522 84.922187 20.645777 -18.698218 2.099918 0.000062 0.007546 38.308257 34.414711 -12.292421 2.125503 -0.000003 0.007519 -0.000002 0.000001 -0.000003 -8.207786 -6.751667 -1.599560 -0.077001 -0.000003 0.000080 -0.000002 -44.370110 0.345938 0.153719 -0.000000 -0.000000 0.000000 -44.423679 -3.043532 -0.076700 0.000000 -0.000002 -0.000006 -8.728667 10.710559 -0.000009 -0.000000 -0.000000 -0.000001 -0.000679 9.278123 0.000000 -0.000000 -0.000000 8.207792 -6.751710 -1.599556 -0.074518 -0.000003 0.000081 -0.000002 -44.370014 0.346960 0.148822 0.000002 0.000000 -0.000001 -44.423664 -3.044403 -0.074314 0.000000 -0.000002 -0.000004 -8.728671 10.710558 0.000007 -0.000000 -0.000000 0.000000 -0.000680 9.278137 -0.000000 0.000000 -0.000001 
0.000006 104.270477 1.554256 0.000010 0.000003 -0.000113 -0.000005 10.181587 0.131522 0.000001 -0.000003 0.000084 -0.000000 9.893967 -1.470711 0.000001 0.000000 -0.000000 -0.000000 9.220802 -1.370642 0.000000 -0.000000 -0.000000 0.000001 16.740433 -2.049030 0.000000 -0.000000 -0.000000 0.000000 9.617859 1.685014 0.000000 0.000000 0.000000 0.000002 22.037384 7.501101 0.000000 -0.000000 0.000000 -4.569968 11.014880 -2.160881 0.000008 0.000001 -0.000038 -10.592799 -0.524847 -2.231763 77.671818 60.472104 -50.274823 -27.841488 0.000015 0.000594 37.536722 105.414442 -48.091253 -28.328833 0.000005 0.000030 -0.000322 -0.000043 0.000005 -2.464700 -1.574199 2.681986 121.838390 -157.468809 162.812940 -3.214952 -1.873055 1.924506 87.710120 222.151124 139.629393 -2.654452 -1.528140 1.513042 187.764537 308.836784 241.457241 -2.018827 -1.152023 1.108063 -0.000002 -0.000003 0.000002 -9.108303 -0.517950 2.260351 -123.773956 7.297687 13.672429 -3.700018 -0.000098 0.001701 238.067883 4.470015 8.012752 -2.850026 -0.000058 -0.000036 237.864452 3.988157 7.207044 -2.772161 -0.000015 -0.000003 0.000000 -0.000001 -0.000001 -9.532519 -0.000095 0.000507 234.829007 8.900440 17.241131 -3.699930 0.000059 0.003677 8.563900 -13.478957 1.010280 -2.949890 0.000204 -0.002087 38.566007 -16.317622 5.744082 -2.946619 0.000001 -0.000166 0.000000 0.000003 0.000000 -9.103626 -0.043151 -1.864650 -115.978525 7.788747 12.381959 -3.379116 0.000007 -0.001121 0.384517 -27.436001 0.097487 -2.889561 0.000237 0.000341 43.644748 -23.999748 9.724151 -2.638829 -0.000003 0.000938 -0.000001 -0.000004 0.000002 -8.076671 -0.486847 -3.805841 -115.125461 0.255748 0.212689 -3.599796 -0.000057 -0.003775 -6.649147 -36.452030 -2.311237 -2.099833 0.000219 -0.005775 43.722831 -27.019614 11.032336 -2.115777 -0.000039 -0.003683 -0.000001 0.000002 -0.000006 4.570446 11.014691 -2.160851 -0.000018 0.000010 -0.000021 10.592484 -0.524554 -2.232363 41.159645 -61.860900 25.359485 27.841768 -0.000058 -0.000124 214.727774 -75.676099 223.855967 28.328840 -0.000043 0.000025 0.000023 -0.000087 -0.000000 2.465881 -1.576105 2.681872 -53.265637 160.062833 23.747017 3.217680 -1.872065 1.916572 346.200023 142.266652 316.398241 2.656004 -1.528779 1.514619 -178.635402 23.899001 104.787075 2.020929 -1.154070 1.115160 0.000003 0.000001 0.000002 9.109164 -0.518030 2.259961 1.165407 -161.738524 7.183324 3.699800 -0.000004 -0.000230 2.204294 -162.507467 14.334482 2.849755 0.000067 0.000449 -174.982944 -14.527652 -142.068167 2.774877 -0.000030 -0.000027 0.000002 0.000001 -0.000002 9.533536 0.000211 0.000020 146.435117 -20.484777 61.827118 3.700037 0.000141 -0.000373 71.803067 -5.707726 4.131784 2.949986 0.000023 -0.000180 37.345934 6.217846 -2.102510 2.952862 -0.000017 0.000058 0.000000 -0.000001 0.000001 9.104649 -0.042795 -1.865128 138.576888 -19.147249 48.086857 3.149940 0.000174 -0.000152 64.678770 14.195009 -9.014304 2.949929 0.000033 -0.000095 24.218334 28.159497 -6.160369 2.644316 0.000017 0.000052 -0.000001 0.000001 0.000000 8.077909 -0.486596 -3.806295 143.794948 -14.184909 43.451164 3.599885 0.000242 0.014525 86.356868 18.239230 -16.877672 2.099920 0.000072 0.007534 43.667363 31.056614 -12.685507 2.125511 -0.000016 0.007510 0.000001 0.000001 -0.000000 -8.207786 -6.751667 -1.599560 -0.077001 -0.000003 0.000080 -0.000002 -44.370110 0.345938 0.153719 -0.000000 -0.000000 0.000000 -44.423679 -3.043532 -0.076700 0.000000 -0.000002 -0.000006 -8.728667 10.710559 -0.000009 -0.000000 -0.000000 -0.000001 -0.000679 9.278123 0.000000 -0.000000 -0.000000 8.207792 -6.751710 -1.599556 -0.074518 -0.000003 0.000081 -0.000002 -44.370014 0.346960 0.148822 0.000002 0.000000 -0.000001 -44.423664 -3.044403 -0.074314 0.000000 -0.000002 -0.000004 -8.728671 10.710558 0.000007 -0.000000 -0.000000 0.000000 -0.000680 9.278137 -0.000000 0.000000 -0.000001 
0.000006 104.270477 1.554256 0.000010 0.000003 -0.000113 -0.000005 10.181587 0.131522 0.000001 -0.000003 0.000084 -0.000000 9.893967 -1.470711 0.000001 0.000000 -0.000000 -0.000000 9.220802 -1.370642 0.000000 -0.000000 -0.000000 0.000001 16.740433 -2.049030 0.000000 -0.000000 -0.000000 0.000000 9.617859 1.685014 0.000000 0.000000 0.000000 0.000002 22.037384 7.501101 0.000000 -0.000000 0.000000 -4.569968 11.014880 -2.160881 0.000008 0.000001 -0.000038 -10.592791 -0.524849 -2.231759 78.555986 61.618688 -51.998558 -27.841476 0.000004 0.000585 45.642746 107.285142 -59.508740 -28.328831 0.000036 0.000029 -0.000322 -0.000045 0.000008 -2.464726 -1.574177 2.681985 124.732027 -164.008702 164.374909 -3.214955 -1.873057 1.924483 92.032646 218.906142 143.445434 -2.654472 -1.528180 1.513023 207.734821 308.552539 263.736034 -2.018852 -1.152017 1.108049 -0.000003 0.000003 -0.000000 -9.108320 -0.517911 2.260355 -128.536729 7.042647 14.616972 -3.700014 -0.000092 0.001715 233.553456 4.132207 8.144114 -2.850016 -0.000044 -0.000012 235.832061 2.887646 5.445795 -2.772161 -0.000014 -0.000027 0.000001 -0.000000 -0.000001 -9.532514 -0.000107 0.000489 234.157244 9.836821 19.279080 -3.699948 0.000035 0.003681 3.986130 -9.945370 0.342770 -2.949909 0.000224 -0.002068 38.718659 -14.277197 5.040493 -2.946614 -0.000002 -0.000163 0.000001 0.000001 -0.000001 -9.103629 -0.043132 -1.864643 -118.195317 9.419304 15.626850 -3.379106 -0.000011 -0.001099 -3.686227 -30.302356 -0.993947 -2.889559 0.000207 0.000331 39.711574 -25.594326 9.375033 -2.638823 -0.000029 0.000941 0.000002 0.000000 -0.000001 -8.076673 -0.486848 -3.805833 -114.127427 0.989021 1.343118 -3.599783 -0.000120 -0.003777 -15.071823 -39.233139 -5.548256 -2.099797 0.000195 -0.005794 39.217450 -30.620602 11.145524 -2.115769 -0.000052 -0.003676 0.000002 -0.000000 -0.000003 4.570446 11.014691 -2.160851 -0.000018 0.000010 -0.000021 10.592486 -0.524555 -2.232363 43.481712 -61.756180 26.824060 27.841764 -0.000045 -0.000115 217.218143 -74.151525 228.036220 28.328833 -0.000013 0.000022 0.000021 -0.000089 -0.000000 2.465910 -1.576154 2.681865 -52.459008 136.968365 19.229117 3.217688 -1.872069 1.916527 361.086966 128.007212 305.190611 2.655925 -1.528840 1.514614 -179.301058 38.527031 118.281364 2.020876 -1.154054 1.115149 0.000001 0.000004 0.000002 9.109050 -0.517841 2.259983 9.472375 -167.128254 72.576839 3.699827 -0.000017 -0.000237 0.982285 -165.582965 7.857801 2.849954 -0.000006 0.000421 -182.786695 -12.817985 -204.447711 2.774879 -0.000044 -0.000025 0.000002 0.000001 0.000000 9.533549 0.000268 0.000048 157.621204 -11.934915 55.662978 3.700030 0.000206 -0.000378 88.351782 -4.311696 4.187184 2.949986 0.000095 -0.000199 52.110245 1.469322 -0.717254 2.952877 -0.000044 0.000070 -0.000000 0.000002 0.000001 9.104681 -0.042759 -1.865092 154.463622 -12.336226 51.001764 3.149986 0.000234 -0.000156 79.518975 7.557813 -6.289588 2.949959 0.000074 -0.000123 42.402832 14.365997 -5.597194 2.644323 0.000027 0.000059 -0.000001 0.000001 -0.000002 8.077918 -0.486621 -3.806273 156.211125 -9.547431 45.993271 3.599911 0.000304 0.014537 103.533005 9.260595 -11.297255 2.099966 0.000143 0.007506 62.489319 16.505415 -9.898083 2.125504 -0.000017 0.007499 0.000003 0.000003 0.000003 -8.207786 -6.751667 -1.599560 -0.077001 -0.000003 0.000080 -0.000002 -44.370110 0.345938 0.153719 -0.000000 -0.000000 0.000000 -44.423679 -3.043532 -0.076700 0.000000 -0.000002 -0.000006 -8.728667 10.710559 -0.000009 -0.000000 -0.000000 -0.000001 -0.000679 9.278123 0.000000 -0.000000 -0.000000 8.207792 -6.751710 -1.599556 -0.074518 -0.000003 0.000081 -0.000002 -44.370014 0.346960 0.148822 0.000002 0.000000 -0.000001 -44.423664 -3.044403 -0.074314 0.000000 -0.000002 -0.000004 -8.728671 10.710558 0.000007 -0.000000 -0.000000 0.000000 -0.000680 9.278137 -0.000000 0.000000 -0.000001 
